<svg xmlns="http://www.w3.org/2000/svg" viewBox="0 0 24 24" id="Elementor">
  <linearGradient id="a" x1="1.25" x2="22.094" y1="22.75" y2="1.906" gradientUnits="userSpaceOnUse">
    <stop offset="0" stop-color="#d45985" class="stopColor312878 svgShape"></stop>
    <stop offset="1" stop-color="#d85b53" class="stopColore02c5d svgShape"></stop>
  </linearGradient>
  <path fill="url(#a)" d="M24 22.8V1.2c0-.664-.536-1.2-1.2-1.2H1.2C.536 0 0 .536 0 1.2v21.6c0 .664.536 1.2 1.2 1.2h21.6c.664 0 1.2-.536 1.2-1.2zM8.802 17.33H6.67V6.67h2.133v10.66zm8.534 0h-6.402v-2.133h6.402v2.133zm0-4.264h-6.402v-2.133h6.402v2.133zm0-4.269h-6.402V6.664h6.402v2.133z"></path>
  <path d="M.084 19.243v-.002l-.004-.013.004.015z" fill="#26d7fe" class="color000000 svgShape"></path>
</svg>
