<?xml version="1.0" encoding="UTF-8" standalone="no"?>
<svg
   xmlns:dc="http://purl.org/dc/elements/1.1/"
   xmlns:cc="http://creativecommons.org/ns#"
   xmlns:rdf="http://www.w3.org/1999/02/22-rdf-syntax-ns#"
   xmlns:svg="http://www.w3.org/2000/svg"
   xmlns="http://www.w3.org/2000/svg"
   xmlns:sodipodi="http://sodipodi.sourceforge.net/DTD/sodipodi-0.dtd"
   xmlns:inkscape="http://www.inkscape.org/namespaces/inkscape"
   version="1.0"
   width="322"
   height="314"
   viewBox="0 0 241.5 235.5">
  <g
     transform="matrix(0.07066169,0,0,-0.07060413,-73.845423,271.47984)"
     id="g26"
     style="fill:#0066ff;stroke:none;stroke-width:1.41577077">
    <path
       d="m 2765,3829 c -405,-4 -636,-10 -668,-17 -149,-36 -283,-161 -338,-317 -18,-51 -20,-82 -20,-233 0,-99 -4,-183 -10,-193 -9,-18 -27,-19 -339,-19 -182,0 -330,-4 -330,-8 0,-8 20,-31 217,-240 l 123,-129 161,-5 c 124,-4 163,-8 170,-19 5,-8 9,-89 9,-181 v -167 l 112,-118 c 181,-189 268,-282 348,-369 l 75,-82 190,-2 c 105,-1 204,-4 220,-6 49,-8 55,-26 55,-159 v -122 l 132,-139 c 73,-76 184,-194 248,-260 63,-67 118,-122 123,-123 4,0 7,158 8,352 0,193 4,372 7,397 l 7,45 175,-1 c 165,-1 178,-2 230,-26 30,-14 70,-39 88,-57 106,-106 148,-296 103,-468 -24,-91 -55,-146 -119,-205 -69,-64 -120,-78 -305,-80 -81,-1 -147,-4 -147,-6 0,-7 54,-68 179,-201 64,-68 121,-131 127,-139 16,-22 170,-17 258,10 207,62 356,190 448,388 122,260 113,560 -24,817 -155,292 -387,402 -843,403 -104,0 -155,4 -163,12 -15,15 -17,484 -2,493 5,3 275,6 600,5 324,0 590,4 590,8 0,8 -92,112 -237,269 l -93,101 -93,6 c -50,3 -465,7 -920,9 -529,2 -831,7 -838,14 -12,12 -15,191 -5,250 9,50 47,87 104,103 24,6 278,10 710,10 h 673 l -20,26 c -30,38 -108,122 -240,259 l -116,120 z m -37,-1416 c 2,-236 2,-242 -18,-253 -14,-7 -75,-10 -173,-8 -180,4 -220,17 -251,83 -16,35 -19,63 -18,222 0,101 3,187 7,193 4,7 83,9 228,8 l 222,-3 z"
       id="path24"
       style="fill:#0066ff;stroke-width:1.41577077"/>
  </g>
</svg>
