<?xml version="1.0" encoding="utf-8"?>
<!-- Generator: Adobe Illustrator 27.5.0, SVG Export Plug-In . SVG Version: 6.00 Build 0)  -->
<svg version="1.1" xmlns="http://www.w3.org/2000/svg" xmlns:xlink="http://www.w3.org/1999/xlink" x="0px" y="0px"
	 viewBox="0 0 500 500" style="enable-background:new 0 0 500 500;" xml:space="preserve">
<g id="BACKGROUND">
	<rect transform="matrix(-1.836970e-16 1 -1 -1.836970e-16 500 5.684342e-14)" style="fill:#5592D9;" width="500" height="500"/>
	
		<rect x="194.571" y="96.889" transform="matrix(-1.836970e-16 1 -1 -1.836970e-16 596.8892 96.8892)" style="fill:none;stroke:#3572AF;stroke-miterlimit:10;" width="110.859" height="500"/>
</g>
<g id="OBJECTS">
	<g>
		<defs>
			<rect id="SVGID_1_" transform="matrix(-1.836970e-16 1 -1 -1.836970e-16 500 5.684342e-14)" width="500" height="500"/>
		</defs>
		<clipPath id="SVGID_00000008841588153283310330000002487516809790203817_">
			<use xlink:href="#SVGID_1_"  style="overflow:visible;"/>
		</clipPath>
		<g style="clip-path:url(#SVGID_00000008841588153283310330000002487516809790203817_);">
			<path style="fill:#3572AF;" d="M456.656,385.007h64.431c1.226,0,2.163,1.093,1.977,2.304l-11.384,73.929
				c-0.15,0.976-0.99,1.696-1.977,1.696H468.04c-0.987,0-1.826-0.72-1.977-1.696l-11.384-73.929
				C454.492,386.099,455.43,385.007,456.656,385.007z"/>
			<g>
				<rect x="424.936" y="47.581" style="fill:#3572AF;" width="173.741" height="195.388"/>
				
					<rect x="426.113" y="70.405" transform="matrix(6.123234e-17 -1 1 6.123234e-17 366.532 657.0814)" style="fill:#3F7DBC;" width="171.388" height="149.74"/>
				<g>
					<rect x="456.936" y="72.581" style="fill:none;stroke:#5592D9;stroke-miterlimit:10;" width="51.671" height="66.07"/>
					<rect x="466.936" y="153.651" style="fill:none;stroke:#5592D9;stroke-miterlimit:10;" width="51.671" height="66.071"/>
				</g>
			</g>
		</g>
	</g>
	<g>
		<g>
			<path style="fill:#FFE3D1;" d="M302.972,221.397H64.1c-1.105,0-2-0.895-2-2V49.581c0-1.105,0.895-2,2-2h238.872
				c1.104,0,2,0.895,2,2v169.816C304.972,220.501,304.076,221.397,302.972,221.397z"/>
			
				<rect x="105.627" y="22.053" transform="matrix(-1.836970e-16 1 -1 -1.836970e-16 318.0241 -49.0467)" style="fill:#00B899;" width="155.816" height="224.872"/>
		</g>
		<g>
			<g>
				
					<line style="fill:none;stroke:#FFFFFF;stroke-width:1.5;stroke-linecap:round;stroke-linejoin:round;stroke-miterlimit:10;" x1="82.683" y1="66.388" x2="136.363" y2="66.388"/>
				
					<line style="fill:none;stroke:#FFFFFF;stroke-width:1.5;stroke-linecap:round;stroke-linejoin:round;stroke-miterlimit:10;" x1="82.683" y1="75.388" x2="112.363" y2="75.388"/>
			</g>
			<path style="fill:#FFBB00;" d="M77.099,138.232v74.165h74.165L77.099,138.232z M93.099,176.86l19.537,19.537H93.099V176.86z"/>
			<path style="fill:#FFE3D1;" d="M152.982,207.992h-11.253h-11.253c-1.216,0-2.202,0.986-2.202,2.202v0
				c0,1.216,0.986,2.202,2.202,2.202h0.798h20.911h0.798c1.216,0,2.202-0.986,2.202-2.202v0
				C155.184,208.978,154.198,207.992,152.982,207.992z"/>
			<g>
				<path style="fill:#FFFFFF;" d="M114.393,212.397H71.099v-10.741c0-1.657,1.343-3,3-3h37.294c1.657,0,3,1.343,3,3V212.397z"/>
				<path style="fill:#EBAD9B;" d="M114.393,207.397H71.099v-5.741c0-1.657,1.343-3,3-3h37.294c1.657,0,3,1.343,3,3V207.397z"/>
			</g>
			<g>
				<path style="fill:none;stroke:#FFFFFF;stroke-width:2;stroke-linecap:round;stroke-linejoin:round;stroke-miterlimit:10;" d="
					M124.102,85.792l-27.108,50.334c0,3.898,11.883,7.059,26.541,7.059s26.541-3.16,26.541-7.059L124.102,85.792z"/>
				<g>
					
						<ellipse style="fill:none;stroke:#FFFFFF;stroke-linecap:round;stroke-linejoin:round;stroke-dasharray:4.0931,4.0931;" cx="123.536" cy="136.127" rx="26.541" ry="7.059"/>
				</g>
				
					<polygon style="fill:none;stroke:#FFFFFF;stroke-width:2;stroke-linecap:round;stroke-linejoin:round;stroke-miterlimit:10;" points="
					124.102,136.127 150.077,136.127 124.102,85.792 				"/>
			</g>
			<text transform="matrix(1 0 0 1 174.0895 94.3)"><tspan x="0" y="0" style="fill:#FFFFFF; font-family:'Schoolbell-Regular'; font-size:12px;">(x+5)2+(y+15)2=49 </tspan><tspan x="0" y="28.8" style="fill:#FFFFFF; font-family:'Schoolbell-Regular'; font-size:12px;">(x−5)2+(y−15)2=14</tspan><tspan x="0" y="57.6" style="fill:#FFFFFF; font-family:'Schoolbell-Regular'; font-size:12px;">(x−5)2+(y−15)2=7</tspan><tspan x="0" y="86.4" style="fill:#FFFFFF; font-family:'Schoolbell-Regular'; font-size:12px;">(x−5)2</tspan></text>
		</g>
	</g>
	<g>
		<g>
			<g>
				<path style="fill:#FFC5C3;" d="M269.684,429.701l-5.252,25.751l-20.012,14.236l-0.003,0.002
					c-1.406,1.077-0.574,3.324,1.194,3.226l42.673-2.371c1.096-0.061,2.047-0.78,2.404-1.819l13.64-39.703L269.684,429.701z"/>
				<path style="fill:#00326F;" d="M244.417,469.69c-1.406,1.077-0.574,3.324,1.194,3.226l42.673-2.371
					c1.096-0.061,2.047-0.78,2.404-1.819l4.29-12.487l-21.737,6.666l-8.809-7.454l-20.012,14.236L244.417,469.69z"/>
			</g>
			<g>
				<path style="fill:#FFC5C3;" d="M378.333,428.329l12.478,23.129l-6.231,23.755l-0.001,0.004c-0.389,1.728,1.69,2.92,2.985,1.71
					l31.229-29.177c0.802-0.75,1.071-1.911,0.679-2.937l-14.986-39.215L378.333,428.329z"/>
				<path style="fill:#00326F;" d="M384.579,475.217c-0.389,1.728,1.69,2.92,2.985,1.71l31.229-29.177
					c0.802-0.75,1.071-1.911,0.679-2.937l-4.713-12.333l-12.408,19.051l-11.54-0.073l-6.231,23.755L384.579,475.217z"/>
			</g>
			<path style="fill:#791F67;" d="M379.844,347.674l0.582-88.793l-85.892-3.049l-29.912,194.717l38.117,3.049l29.38-135.654
				l7.471,34.685c1.128,5.237,3.029,10.276,5.64,14.954l37.504,77.45l31.511-17.672L379.844,347.674z"/>
			
				<line style="fill:none;stroke:#001123;stroke-width:1.5;stroke-linecap:round;stroke-linejoin:round;stroke-miterlimit:10;" x1="329.602" y1="287.343" x2="332.12" y2="317.944"/>
		</g>
		<g>
			<path style="fill:#FF7B89;" d="M408.073,228.372l-12.068-71.936c-1.232-7.343-6.674-13.271-13.885-15.125l-23.379-5.929
				l-27.445-0.508c0,0-16.048,3.332-19.652,7.115c-13.553,14.23-43.03,57.261-43.03,57.261l-23.718-14.908l-10.503,17.28
				l24.843,26.65c6.838,7.336,18.353,7.668,25.603,0.739l14.425-13.787l-7.61,45.014c0,0,18.407,6.613,31.849,8.471
				c20.838,2.88,58.278-5.421,58.278-5.421l0.036-13.005l10.28-1.02C402.465,248.234,409.797,238.646,408.073,228.372z
				 M381.888,224.786l0.001-0.534l0.23,0.409L381.888,224.786z"/>
			<g>
				<path style="fill:#001123;" d="M347.304,251.633l-3.09-0.503C345.175,251.339,346.216,251.503,347.304,251.633z"/>
				<path style="fill:#001123;" d="M347.304,251.633l34.494,5.61l0.019-6.963l-12.234,0.977
					C369.583,251.258,356.615,252.75,347.304,251.633z"/>
			</g>
			
				<line style="fill:none;stroke:#F9415B;stroke-width:1.5;stroke-linecap:round;stroke-linejoin:round;stroke-miterlimit:10;" x1="299.264" y1="215.222" x2="305.715" y2="184.934"/>
			<g>
				<polygon style="fill:#C52E7B;" points="320.882,287.905 370.966,269.02 329.822,214.566 279.738,233.45 				"/>
				<path style="fill:#FFC5C3;" d="M366.026,234.317c0,0,5.252,4.913,3.558,16.941c0,0-16.179,1.864-25.369-0.127
					c-8.554-1.853-12.306-4.129-12.198-5.209c0.127-1.271,0.085-1.736,0.974-2.372s8.619,0.911,17.703-0.868
					c-1.398-2.096-3.176-4.511-3.176-4.511s3.346,2.245,7.158,1.228C358.487,238.383,366.026,234.317,366.026,234.317z"/>
				
					<path style="fill:none;stroke:#FF7B89;stroke-width:1.05;stroke-linecap:round;stroke-linejoin:round;stroke-miterlimit:10;" d="
					M346.544,248.548c0,0-7.708,0-14.527-2.626"/>
			</g>
			
				<polyline style="fill:none;stroke:#F9415B;stroke-width:1.5;stroke-linecap:round;stroke-linejoin:round;stroke-miterlimit:10;" points="
				379.748,218.731 382.12,224.661 366.026,234.317 			"/>
			<g>
				<polygon style="fill:#FFE3D1;" points="326.553,132.67 321.979,145.206 331.127,138.43 340.191,148.171 358.741,135.381 
					352.727,124.454 				"/>
				<path style="fill:#FFC5C3;" d="M325.026,101.819c-0.757-1.389-3.662-4.732-7.238-1.856c-3.975,3.197-0.41,10.55,6.224,12.045
					C330.646,113.503,326.376,104.297,325.026,101.819z"/>
				<path style="fill:#C57D4B;" d="M322.487,103.489c0,0-0.514-20.179,15.516-25.251c3.497-1.106,15.74-2.829,21.839,9.707
					c0.834,1.714,7.369,4.024,5.464,16.475c-1.906,12.452-11.308,28.334-23.76,31.51c-12.452,3.176-24.179,0.027-25.285-13.341
					C315.33,111.324,322.487,103.489,322.487,103.489z"/>
				<path style="fill:#FFC5C3;" d="M357.174,89.385c-7.242-10.419-22.235-8.386-29.351-2.922
					c-7.115,5.464-5.336,17.026-5.336,17.026s-2.539,4.771-1.588,7.052c0.769,1.845,2.439,0.096,7.724,0.35
					c-0.016,0.118-0.037,0.238-0.037,0.349c0,2.711,4.998,1.694,6.607,0.847l-0.006-0.031c6.383,1.973,9.62,5.713,12.839,3.758
					c3.558-2.16,4.955-10.673,6.48-13.087C356.031,100.313,364.417,99.804,357.174,89.385z"/>
				<path style="fill:#FFFFFF;" d="M331.805,119.795c-0.593-2.456,9.741-4.235,11.435-2.88c1.694,1.355-0.339,4.743-3.219,5.591
					C336.472,123.549,332.398,122.251,331.805,119.795z"/>
				<g>
					<path style="fill:none;stroke:#FFFFFF;stroke-miterlimit:10;" d="M333.187,102.329c-0.606,3.437-3.884,5.732-7.321,5.126
						c-3.437-0.606-5.732-3.884-5.126-7.321c0.606-3.437,3.884-5.732,7.321-5.126C331.498,95.614,333.793,98.892,333.187,102.329z"
						/>
					<path style="fill:none;stroke:#FFFFFF;stroke-miterlimit:10;" d="M349.078,105.131c-0.606,3.437-3.884,5.732-7.321,5.126
						c-3.437-0.606-5.732-3.884-5.126-7.321c0.606-3.437,3.884-5.733,7.321-5.126C347.389,98.416,349.684,101.694,349.078,105.131z"
						/>
				</g>
				
					<path style="fill:none;stroke:#FF7B89;stroke-width:1.05;stroke-linecap:round;stroke-linejoin:round;stroke-miterlimit:10;" d="
					M333.584,103.362c0,0-4.998,5.167-4.998,7.878s4.998,1.694,6.607,0.847"/>
				
					<line style="fill:none;stroke:#FFFFFF;stroke-linecap:round;stroke-linejoin:round;stroke-miterlimit:10;" x1="349.078" y1="105.131" x2="361.875" y2="103.616"/>
				<path style="fill:#FFC5C3;" d="M359.488,105.419c0.757-1.389,3.662-4.732,7.238-1.856c3.975,3.197,0.41,10.55-6.224,12.045
					C353.868,117.103,358.138,107.897,359.488,105.419z"/>
				<g>
					<path style="fill:#791F67;" d="M339.568,105.567c-0.108,1.273,0.36,2.351,1.045,2.41c0.685,0.058,1.328-0.926,1.436-2.199
						c0.108-1.273-0.36-2.351-1.045-2.41C340.319,103.31,339.676,104.294,339.568,105.567z"/>
					<path style="fill:#791F67;" d="M325.938,102.356c-0.108,1.272,0.36,2.351,1.045,2.41c0.685,0.058,1.328-0.926,1.436-2.199
						c0.108-1.272-0.36-2.351-1.045-2.41C326.69,100.099,326.047,101.084,325.938,102.356z"/>
				</g>
			</g>
			<g>
				<path style="fill:#FFC5C3;" d="M247.777,186.712l-13.383,14.908c0,0-6.946-8.132-8.471-8.979
					c-1.525-0.847-14.231-7.793-15.078-11.351c-0.847-3.558,5.59,3.049,9.148,2.372c3.558-0.678,1.186-5.929-0.339-7.285
					c-1.525-1.355-11.859,0.847-12.875,0c-1.016-0.847,0.678-2.372,6.946-4.405c5.804-1.882,11.689-0.339,14.4,1.525
					c2.711,1.863,5.421,4.066,6.268,4.913C235.24,179.258,247.777,186.712,247.777,186.712z"/>
				<g>
					<path style="fill:#FFE3D1;" d="M228.427,180.331l-23.097-6.189c-0.671-0.18-1.471,0.627-1.786,1.802
						c-0.315,1.175-0.026,2.273,0.646,2.453l23.097,6.189L228.427,180.331z"/>
					<path style="fill:#F9415B;" d="M227.287,184.586c-0.671-0.18-0.96-1.278-0.646-2.453s1.114-1.982,1.786-1.802
						s0.96,1.278,0.646,2.453C228.758,183.959,227.958,184.766,227.287,184.586z"/>
				</g>
			</g>
		</g>
	</g>
	<text transform="matrix(1 0 0 1 -10.0044 -42.1924)" style="font-family:'MyriadPro-Regular'; font-size:12px;">t</text>
	<g>
		<rect y="276.583" style="fill:#3F7DBC;" width="216.364" height="140.611"/>
		<polygon style="fill:#3572AF;" points="203.172,276.583 0,276.583 0,289.776 203.172,289.776 203.172,462.936 216.364,462.936 
			216.364,289.776 216.364,276.583 		"/>
	</g>
	<path style="fill:none;stroke:#3572AF;stroke-miterlimit:10;" d="M173.972,276.583h-12.471c-5.523,0-10-4.477-10-10v-22.165
		c0-1.105,0.895-2,2-2h28.471c1.105,0,2,0.895,2,2v22.165C183.972,272.106,179.495,276.583,173.972,276.583z"/>
	<g>
		<path style="fill:none;stroke:#3572AF;stroke-miterlimit:10;" d="M135.364,276.583H79.517c-2.911,0-5.271-2.36-5.271-5.271l0,0
			c0-2.911,2.36-5.271,5.271-5.271h55.847c0.552,0,1,0.448,1,1v8.541C136.364,276.136,135.917,276.583,135.364,276.583z"/>
		<path style="fill:none;stroke:#3572AF;stroke-miterlimit:10;" d="M130.364,266.042H79.517c-2.911,0-5.271-2.36-5.271-5.271l0,0
			c0-2.911,2.36-5.271,5.271-5.271h50.847c0.552,0,1,0.448,1,1v8.541C131.364,265.595,130.917,266.042,130.364,266.042z"/>
	</g>
	<g>
		<g>
			<path style="fill:#3F7DBC;" d="M25.43,246.858l11.899,1.125c3.251-13.16,2.61-49.023-4.389-44.5
				c-4.924,3.182-0.254,16.529-2.898,20.648C26.087,230.292,25.404,244.04,25.43,246.858z"/>
			<path style="fill:#3F7DBC;" d="M26.837,247.501h14.574c-5.835-12.235-25.788-36.141-28.424-28.235
				c-2.635,7.906,8.847,13.553,8.847,18.447C21.835,241.281,25.029,245.34,26.837,247.501z"/>
			<path style="fill:#3F7DBC;" d="M41.411,247.501H26.837c5.835-12.235,25.619-31.346,28.423-28.235
				c2.715,3.012-5.191,9.977-5.191,14.871C50.07,237.704,43.219,245.34,41.411,247.501z"/>
			<path style="fill:none;stroke:#001123;stroke-linecap:round;stroke-linejoin:round;stroke-miterlimit:10;" d="M31.912,232.829
				c-1.289-1.66-2.621-3.284-3.954-4.816"/>
			<path style="fill:#3572AF;" d="M50.164,243.831H18.259c-1.201,0-2.131,1.051-1.985,2.242l3.512,28.753
				c0.122,1.003,0.974,1.758,1.985,1.758h24.882c1.011,0,1.863-0.754,1.985-1.758l3.512-28.753
				C52.295,244.881,51.365,243.831,50.164,243.831z"/>
		</g>
		
			<line style="fill:none;stroke:#001123;stroke-linecap:round;stroke-linejoin:round;stroke-miterlimit:10;" x1="21.771" y1="276.583" x2="46.653" y2="276.583"/>
	</g>
</g>
</svg>
